<svg height="512pt" viewBox="0 0 512.0015 512" width="512pt" xmlns="http://www.w3.org/2000/svg"><path d="m503.46875 512h-494.933594c-4.710937 0-8.535156-3.8125-8.535156-8.53125v-290.132812c0-4.722657 3.824219-8.535157 8.535156-8.535157h85.332032v17.066407h-76.800782v273.066406h477.867188v-273.066406h-76.796875v-17.066407h85.332031c4.710938 0 8.53125 3.8125 8.53125 8.535157v290.132812c0 4.71875-3.820312 8.53125-8.53125 8.53125zm0 0"/><path d="m503.46875 512c-1.628906 0-3.261719-.46875-4.675781-1.390625l-194.917969-127.699219c-2.261719-1.488281-3.6875-3.953125-3.851562-6.648437-.152344-2.695313.984374-5.316407 3.054687-7.050781l194.929687-162.4375c2.542969-2.117188 6.074219-2.570313 9.078126-1.171876 2.996093 1.410157 4.914062 4.421876 4.914062 7.734376v290.132812c0 3.128906-1.722656 6.015625-4.46875 7.507812-1.273438.683594-2.671875 1.023438-4.0625 1.023438zm-180.601562-137.0625 172.066406 112.734375v-256.117187zm0 0"/><path d="m8.535156 512c-1.390625 0-2.789062-.339844-4.054687-1.023438-2.753907-1.492187-4.480469-4.378906-4.480469-7.507812v-290.132812c0-3.3125 1.914062-6.324219 4.917969-7.722657 3.003906-1.410156 6.535156-.949219 9.078125 1.167969l194.917968 162.429688c2.074219 1.734374 3.210938 4.355468 3.054688 7.050781-.152344 2.695312-1.578125 5.160156-3.839844 6.648437l-194.917968 127.699219c-1.417969.921875-3.046876 1.390625-4.675782 1.390625zm8.53125-280.445312v256.125l172.066406-112.734376zm0 0"/><path d="m486.402344 68.265625h-68.265625c-4.710938 0-8.535157-3.8125-8.535157-8.53125v-17.066406c0-23.527344 19.140626-42.667969 42.667969-42.667969 23.523438 0 42.664063 19.140625 42.664063 42.667969v17.066406c0 4.71875-3.820313 8.53125-8.53125 8.53125zm-59.734375-17.066406h51.199219v-8.53125c0-14.113281-11.484376-25.601563-25.597657-25.601563-14.117187 0-25.601562 11.488282-25.601562 25.601563zm0 0"/><path d="m375.46875 93.867188h-68.265625c-4.710937 0-8.535156-3.8125-8.535156-8.53125 0-4.722657 3.824219-8.535157 8.535156-8.535157h68.265625c4.710938 0 8.53125 3.8125 8.53125 8.535157 0 4.71875-3.820312 8.53125-8.53125 8.53125zm0 0"/><path d="m273.066406 93.867188h-85.332031c-4.710937 0-8.53125-3.8125-8.53125-8.53125 0-4.722657 3.820313-8.535157 8.53125-8.535157h85.332031c4.710938 0 8.535156 3.8125 8.535156 8.535157 0 4.71875-3.824218 8.53125-8.535156 8.53125zm0 0"/><path d="m307.203125 59.734375h-93.867187c-4.710938 0-8.535157-3.816406-8.535157-8.535156s3.824219-8.53125 8.535157-8.53125h93.867187c4.707031 0 8.53125 3.8125 8.53125 8.53125s-3.824219 8.535156-8.53125 8.535156zm0 0"/><path d="m153.601562 93.867188h-17.066406c-4.710937 0-8.535156-3.8125-8.535156-8.53125 0-4.722657 3.824219-8.535157 8.535156-8.535157h17.066406c4.710938 0 8.535157 3.8125 8.535157 8.535157 0 4.71875-3.824219 8.53125-8.535157 8.53125zm0 0"/><path d="m179.203125 59.734375h-42.667969c-4.710937 0-8.535156-3.816406-8.535156-8.535156s3.824219-8.53125 8.535156-8.53125h42.667969c4.707031 0 8.53125 3.8125 8.53125 8.53125s-3.824219 8.535156-8.53125 8.535156zm0 0"/><path d="m375.46875 59.734375h-34.132812c-4.710938 0-8.535157-3.816406-8.535157-8.535156s3.824219-8.53125 8.535157-8.53125h34.132812c4.710938 0 8.53125 3.8125 8.53125 8.53125s-3.820312 8.535156-8.53125 8.535156zm0 0"/><path d="m503.46875 221.867188h-85.332031c-4.710938 0-8.535157-3.8125-8.535157-8.53125v-70.613282c0-3.3125 1.910157-6.316406 4.898438-7.722656 2.984375-1.402344 6.527344-.957031 9.070312 1.148438l85.332032 70.613281c2.773437 2.296875 3.808594 6.085937 2.585937 9.464843-1.210937 3.378907-4.417969 5.640626-8.019531 5.640626zm-76.800781-17.066407h53.101562l-53.101562-43.9375zm0 0"/><path d="m93.867188 221.867188h-85.332032c-3.601562 0-6.808594-2.261719-8.03125-5.640626-1.21875-3.378906-.179687-7.175781 2.585938-9.464843l85.335937-70.613281c2.550781-2.105469 6.074219-2.550782 9.070313-1.148438 2.992187 1.398438 4.90625 4.410156 4.90625 7.722656v70.613282c0 4.71875-3.824219 8.53125-8.535156 8.53125zm-61.636719-17.066407h53.105469v-43.9375zm0 0"/><path d="m418.136719 221.867188c-4.710938 0-8.535157-3.8125-8.535157-8.53125v-170.667969c0-9.601563 3.191407-18.464844 8.550782-25.601563h-290.152344c-14.113281 0-25.597656 11.488282-25.597656 25.601563v170.667969c0 4.71875-3.824219 8.53125-8.535156 8.53125-4.710938 0-8.53125-3.8125-8.53125-8.53125v-170.667969c0-23.527344 19.140624-42.667969 42.664062-42.667969h324.269531c4.710938 0 8.53125 3.816406 8.53125 8.535156s-3.820312 8.53125-8.53125 8.53125c-14.117187 0-25.601562 11.488282-25.601562 25.601563v170.667969c0 4.71875-3.824219 8.53125-8.53125 8.53125zm0 0"/><path d="m203.453125 384.300781c-1.953125 0-3.890625-.667969-5.460937-1.972656l-109.585938-91.324219c-1.945312-1.628906-3.070312-4.027344-3.070312-6.5625v-241.773437c0-23.527344 19.140624-42.667969 42.664062-42.667969h324.269531c4.710938 0 8.53125 3.816406 8.53125 8.535156s-3.820312 8.53125-8.53125 8.53125c-14.117187 0-25.601562 11.488282-25.601562 25.601563v241.773437c0 2.535156-1.125 4.933594-3.070313 6.5625l-109.585937 91.324219c-2.894531 2.40625-7.007813 2.636719-10.136719.582031l-28.347656-18.578125c-11.871094-7.792969-27.199219-7.773437-39.050782-.007812v.007812l-28.347656 18.578125c-1.425781.929688-3.054687 1.390625-4.675781 1.390625zm52.546875-42.863281c10.054688 0 20.105469 2.875 28.878906 8.625l23.066406 15.113281 101.65625-84.734375v-237.773437c0-9.601563 3.191407-18.464844 8.550782-25.601563h-290.152344c-14.113281 0-25.597656 11.488282-25.597656 25.601563v237.773437l101.65625 84.726563 23.066406-15.113281v.007812c8.773438-5.75 18.824219-8.625 28.875-8.625zm0 0"/><path d="m503.46875 512c-1.628906 0-3.261719-.46875-4.675781-1.390625l-194.917969-127.699219c-2.261719-1.488281-3.6875-3.953125-3.851562-6.648437-.152344-2.695313.984374-5.316407 3.054687-7.050781l106.523437-88.769532v-67.105468c0-4.722657 3.824219-8.535157 8.535157-8.535157h85.332031c4.710938 0 8.53125 3.8125 8.53125 8.535157v290.132812c0 3.128906-1.722656 6.015625-4.46875 7.507812-1.273438.683594-2.671875 1.023438-4.0625 1.023438zm-180.601562-137.0625 172.066406 112.734375v-265.804687h-68.265625v62.574218c0 2.535156-1.125 4.933594-3.070313 6.5625zm95.269531-90.496094h.082031zm0 0"/><path d="m8.535156 512c-1.390625 0-2.789062-.339844-4.054687-1.023438-2.753907-1.492187-4.480469-4.378906-4.480469-7.507812v-290.132812c0-4.722657 3.824219-8.535157 8.535156-8.535157h85.332032c4.710937 0 8.535156 3.8125 8.535156 8.535157v67.105468l106.511718 88.761719c2.074219 1.734375 3.210938 4.351563 3.054688 7.050781-.152344 2.695313-1.578125 5.160156-3.839844 6.644532l-194.917968 127.710937c-1.417969.921875-3.046876 1.390625-4.675782 1.390625zm8.53125-290.132812v265.804687l172.066406-112.734375-100.726562-83.933594c-1.945312-1.628906-3.070312-4.027344-3.070312-6.5625v-62.574218zm0 0"/><path d="m262.53125 281.710938c-55.664062 0-100.609375-16.664063-103.417969-17.722657-3.855469-1.46875-6.109375-5.46875-5.367187-9.515625.734375-4.0625 4.265625-7.003906 8.390625-7.003906 12.832031 0 17.039062-28.75 17.066406-42.675781v-25.59375c0-47.246094 50.234375-59.730469 76.796875-59.730469 26.566406 0 76.800781 12.484375 76.800781 59.730469v25.601562c.027344 13.917969 4.234375 42.667969 17.066407 42.667969 4.027343 0 7.511718 2.816406 8.347656 6.757812.835937 3.949219-1.195313 7.933594-4.882813 9.574219-30.234375 13.429688-61.960937 17.910157-90.800781 17.910157zm-79.027344-28.066407c29.402344 7.859375 89.523438 19.253907 145.851563 1.066407-13.109375-15.785157-13.621094-45.457032-13.621094-49.910157v-25.601562c0-42-57.308594-42.65625-59.742187-42.664063-2.414063.007813-59.722657.664063-59.722657 42.664063v25.601562c0 4.359375-.488281 32.835938-12.765625 48.84375zm0 0"/><path d="m221.867188 238.933594c-4.710938 0-8.53125-3.8125-8.53125-8.53125v-51.203125c0-24.898438 42.460937-25.597657 42.886718-25.597657 4.710938 0 8.535156 3.8125 8.535156 8.53125s-3.824218 8.535157-8.535156 8.535157c-11.261718.347656-25.820312 4.445312-25.820312 8.53125v51.203125c0 4.71875-3.824219 8.53125-8.535156 8.53125zm0 0"/><path d="m256 315.734375c-23.523438 0-42.664062-19.140625-42.664062-42.667969v-2.917968c0-2.464844 1.066406-4.8125 2.925781-6.433594s4.335937-2.378906 6.777343-2.015625c23.113282 3.191406 45.378907 3.664062 66.175782 1.410156 2.394531-.273437 4.8125.511719 6.621094 2.132813 1.800781 1.613281 2.832031 3.925781 2.832031 6.347656v1.476562c0 23.527344-19.140625 42.667969-42.667969 42.667969zm-24.675781-35.832031c3.003906 10.804687 12.925781 18.765625 24.675781 18.765625 11.351562 0 20.992188-7.417969 24.347656-17.65625-15.753906 1.023437-32.164062.65625-49.023437-1.109375zm0 0"/></svg>