<svg height="480pt" viewBox="0 0 480 480" width="480pt" xmlns="http://www.w3.org/2000/svg"><path d="m456 256h-296c-13.25.015625-23.984375 10.75-24 24v176c.015625 13.25 10.75 23.984375 24 24h296c13.25-.015625 23.984375-10.75 24-24v-176c-.015625-13.25-10.75-23.984375-24-24zm8 200c-.003906 4.417969-3.582031 7.996094-8 8h-296c-4.417969-.003906-7.996094-3.582031-8-8v-176c.003906-4.417969 3.582031-7.996094 8-8h296c4.417969.003906 7.996094 3.582031 8 8zm0 0"/><path d="m88 240h328v-32c-.015625-13.25-10.75-23.984375-24-24h-296c-13.25.015625-23.984375 10.75-24 24v176c.015625 13.25 10.75 23.984375 24 24h24v-16h-24c-4.417969-.003906-7.996094-3.582031-8-8v-72h32v-16h-32zm8-40h296c4.417969.003906 7.996094 3.582031 8 8v16h-312v-16c.003906-4.417969 3.582031-7.996094 8-8zm0 0"/><path d="m424 288h-48c-13.25.015625-23.984375 10.75-24 24v48c.015625 13.25 10.75 23.984375 24 24h48c13.25-.015625 23.984375-10.75 24-24v-48c-.015625-13.25-10.75-23.984375-24-24zm-56 72v-48c.003906-4.417969 3.582031-7.996094 8-8h8v16h16v-16h24c4.417969.003906 7.996094 3.582031 8 8v24h-32c-8.832031.011719-15.988281 7.167969-16 16v16h-8c-4.417969-.003906-7.996094-3.582031-8-8zm56 8h-24v-16h32v8c-.003906 4.417969-3.582031 7.996094-8 8zm0 0"/><path d="m320 312h16v16h-16zm0 0"/><path d="m200 312h104v16h-104zm0 0"/><path d="m168 312h16v16h-16zm0 0"/><path d="m320 344h16v16h-16zm0 0"/><path d="m200 344h104v16h-104zm0 0"/><path d="m168 344h16v16h-16zm0 0"/><path d="m280 384h-24c-8.832031.011719-15.988281 7.167969-16 16v24c.011719 8.832031 7.167969 15.988281 16 16h24c8.832031-.011719 15.988281-7.167969 16-16v-24c-.011719-8.832031-7.167969-15.988281-16-16zm0 40h-24v-24h24zm0 0"/><path d="m208 384h-24c-8.832031.011719-15.988281 7.167969-16 16v24c.011719 8.832031 7.167969 15.988281 16 16h24c8.832031-.011719 15.988281-7.167969 16-16v-24c-.011719-8.832031-7.167969-15.988281-16-16zm0 40h-24v-24h24zm0 0"/><path d="m424 408h16v16h-16zm0 0"/><path d="m392 408h16v16h-16zm0 0"/><path d="m360 408h16v16h-16zm0 0"/><path d="m328 408h16v16h-16zm0 0"/><path d="m48 248v-80h64c13.25-.015625 23.984375-10.75 24-24v-48c-.015625-13.25-10.75-23.984375-24-24h-64v-48c.003906-4.417969 3.582031-7.996094 8-8h376c4.417969.003906 7.996094 3.582031 8 8v216h16v-216c-.015625-13.25-10.75-23.984375-24-24h-376c-13.25.015625-23.984375 10.75-24 24v48h-8c-13.25.015625-23.984375 10.75-24 24v80c.015625 13.25 10.75 23.984375 24 24h8v48c.015625 13.25 10.75 23.984375 24 24v-16c-4.417969-.003906-7.996094-3.582031-8-8zm-32-152c.003906-4.417969 3.582031-7.996094 8-8h88c4.417969.003906 7.996094 3.582031 8 8v48c-.003906 4.417969-3.582031 7.996094-8 8h-96zm8 88c-4.417969-.003906-7.996094-3.582031-8-8v-8h16v16zm0 0"/><path d="m104 120c0 8.835938-7.164062 16-16 16s-16-7.164062-16-16 7.164062-16 16-16 16 7.164062 16 16zm0 0"/><path d="m424 56h-16c-.011719-8.832031-7.167969-15.988281-16-16h-16c-8.832031.011719-15.988281 7.167969-16 16h-56c-.011719-8.832031-7.167969-15.988281-16-16h-16c-8.832031.011719-15.988281 7.167969-16 16v12.324219l-45.917969 39.355469c-2.828125-2.363282-6.394531-3.664063-10.082031-3.679688h-16c-8.832031.011719-15.988281 7.167969-16 16h-16v16h16c.011719 8.832031 7.167969 15.988281 16 16h16c8.832031-.011719 15.988281-7.167969 16-16v-12.324219l45.917969-39.355469c2.828125 2.363282 6.394531 3.664063 10.082031 3.679688h16c8.832031-.011719 15.988281-7.167969 16-16h56c.011719 8.832031 7.167969 15.988281 16 16h16c8.832031-.011719 15.988281-7.167969 16-16h16zm-240 80v-16h16l.011719 16zm88-64v-16h16l.011719 16zm104 0v-16h16l.011719 16zm0 0"/><path d="m248 136h16v16h-16zm0 0"/><path d="m280 136h112v16h-112zm0 0"/><path d="m408 136h16v16h-16zm0 0"/><path d="m264 104h16v16h-16zm0 0"/><path d="m296 104h96v16h-96zm0 0"/><path d="m408 104h16v16h-16zm0 0"/></svg>